<?xml version="1.0" encoding="UTF-8" standalone="no"?>
<!-- Created with Inkscape (http://www.inkscape.org/) -->

<svg
   xmlns:dc="http://purl.org/dc/elements/1.1/"
   xmlns:cc="http://creativecommons.org/ns#"
   xmlns:rdf="http://www.w3.org/1999/02/22-rdf-syntax-ns#"
   xmlns:svg="http://www.w3.org/2000/svg"
   xmlns="http://www.w3.org/2000/svg"
   xmlns:inkscape="http://www.inkscape.org/namespaces/inkscape"
   version="1.1"
   width="408.5419"
   height="570.50507"
   id="svg2">
  <title
     id="title3130">Jellyfish</title>
  <defs
     id="defs4">
    <inkscape:path-effect
       effect="skeletal"
       id="path-effect3117" />
    <inkscape:path-effect
       effect="spiro"
       id="path-effect3115" />
    <inkscape:path-effect
       effect="skeletal"
       id="path-effect3111" />
    <inkscape:path-effect
       effect="spiro"
       id="path-effect3109" />
    <inkscape:path-effect
       effect="skeletal"
       id="path-effect3105" />
    <inkscape:path-effect
       effect="spiro"
       id="path-effect3103" />
    <inkscape:path-effect
       effect="skeletal"
       id="path-effect3099" />
    <inkscape:path-effect
       effect="spiro"
       id="path-effect3097" />
    <inkscape:path-effect
       effect="skeletal"
       id="path-effect3093" />
    <inkscape:path-effect
       effect="spiro"
       id="path-effect3091" />
    <inkscape:path-effect
       effect="skeletal"
       id="path-effect3087" />
    <inkscape:path-effect
       effect="spiro"
       id="path-effect3085" />
    <inkscape:path-effect
       effect="skeletal"
       id="path-effect3081" />
    <inkscape:path-effect
       effect="spiro"
       id="path-effect3079" />
    <inkscape:path-effect
       effect="skeletal"
       id="path-effect3075" />
    <inkscape:path-effect
       effect="spiro"
       id="path-effect3073" />
    <inkscape:path-effect
       effect="skeletal"
       id="path-effect3069" />
    <inkscape:path-effect
       effect="spiro"
       id="path-effect3067" />
    <inkscape:path-effect
       effect="skeletal"
       id="path-effect3063" />
    <inkscape:path-effect
       effect="spiro"
       id="path-effect3061" />
    <inkscape:path-effect
       effect="skeletal"
       id="path-effect3057" />
    <inkscape:path-effect
       effect="spiro"
       id="path-effect3055" />
    <inkscape:path-effect
       effect="skeletal"
       id="path-effect3051" />
    <inkscape:path-effect
       effect="spiro"
       id="path-effect3049" />
    <inkscape:path-effect
       effect="skeletal"
       id="path-effect3045" />
    <inkscape:path-effect
       effect="spiro"
       id="path-effect3043" />
    <inkscape:path-effect
       effect="spiro"
       id="path-effect3033" />
  </defs>
  <metadata
     id="metadata7">
    <rdf:RDF>
      <cc:Work
         rdf:about="">
        <dc:format>image/svg+xml</dc:format>
        <dc:type
           rdf:resource="http://purl.org/dc/dcmitype/StillImage" />
        <dc:title>Jellyfish</dc:title>
        <dc:date>2013-08-10</dc:date>
        <dc:creator>
          <cc:Agent>
            <dc:title>Urs Roesch</dc:title>
          </cc:Agent>
        </dc:creator>
        <cc:license
           rdf:resource="http://creativecommons.org/licenses/publicdomain/" />
        <dc:publisher>
          <cc:Agent>
            <dc:title>OpenClipart</dc:title>
          </cc:Agent>
        </dc:publisher>
        <dc:subject>
          <rdf:Bag>
            <rdf:li>Jellyfish</rdf:li>
            <rdf:li>Blue</rdf:li>
            <rdf:li>Sea Creature</rdf:li>
          </rdf:Bag>
        </dc:subject>
        <dc:description>Simple jelly fish with sleepy eyes.</dc:description>
      </cc:Work>
      <cc:License
         rdf:about="http://creativecommons.org/licenses/publicdomain/">
        <cc:permits
           rdf:resource="http://creativecommons.org/ns#Reproduction" />
        <cc:permits
           rdf:resource="http://creativecommons.org/ns#Distribution" />
        <cc:permits
           rdf:resource="http://creativecommons.org/ns#DerivativeWorks" />
      </cc:License>
    </rdf:RDF>
  </metadata>
  <g
     transform="translate(-185.5922,-209)"
     id="layer1"
     style="stroke:none">
    <g
       id="g4242"
       style="stroke:none">
      <g
         id="g3199"
         style="stroke:none">
        <path
           d="m 221.21273,416.86058 -3.74992,9.27028 c 24.46169,9.54511 45.24804,29.00323 56.4204,53.03889 11.19332,24.02621 12.79178,52.68515 4.18698,78.01664 -6.03255,17.92102 -16.99788,34.09288 -27.61672,50.4459 -10.66834,16.32907 -21.23069,33.44022 -26.17719,52.65399 -3.41565,13.37245 -3.7919,27.42812 -1.36769,40.92823 0,10e-6 0,10e-6 0,10e-6 2.42141,13.50059 7.65102,26.48602 15.42599,37.72235 7.77746,11.23465 18.04885,20.64676 29.72224,27.60438 11.67289,6.95841 24.78383,11.48326 38.22889,12.96379 -13.40836,-1.7825 -26.34608,-6.59123 -37.75289,-13.74241 -11.40632,-7.15199 -21.31727,-16.66926 -28.68598,-27.84771 -7.3712,-11.17676 -12.177,-23.97774 -14.23833,-37.15409 -2.05855,-13.17681 -1.37878,-26.77133 2.19421,-39.53147 5.11215,-18.39853 15.84162,-34.78302 26.78006,-50.84235 10.98823,-16.0358 22.5033,-32.31347 29.40806,-51.11474 0,-1e-5 1e-5,-2e-5 1e-5,-2e-5 9.72838,-26.70691 8.8085,-57.18449 -2.68912,-83.44966 -11.51857,-26.2557 -33.40342,-47.81756 -60.089,-58.96201 z"
           id="path3089"
           style="fill:#37abc8;fill-rule:evenodd;stroke:none" />
        <path
           d="m 266.99265,437.87667 -4.41818,8.97104 c 17.07719,8.10891 31.55658,22.04221 40.35452,38.97342 8.80898,16.92566 11.9786,36.93812 8.75392,55.923 -3.24199,19.57379 -13.19604,37.80263 -22.68607,56.11531 -9.57278,18.28476 -18.94197,37.65447 -20.72901,58.61699 0,10e-6 0,10e-6 0,2e-5 -1.91895,23.23429 6.35899,46.95994 22.06709,63.82886 15.71345,16.86408 38.61126,26.61132 61.39658,26.34259 -22.78451,-0.33029 -45.15507,-10.66863 -60.06579,-27.55028 -14.91606,-16.87678 -22.24926,-40.15058 -19.82012,-62.27824 0,0 0,-10e-6 0,-10e-6 2.14229,-20.03066 11.83016,-38.4983 21.74796,-56.49023 10.00107,-17.96497 20.62115,-36.41813 24.819,-57.34891 4.00831,-20.39354 1.2123,-42.09423 -7.95946,-60.94102 -9.18279,-18.84125 -24.6201,-34.58229 -43.46044,-44.16254 z"
           id="path3059"
           style="fill:#37abc8;fill-rule:evenodd;stroke:none" />
        <path
           d="m 314.52127,436.53654 -8.04684,5.93702 c 15.17292,19.93847 25.79583,43.43941 31.24651,68.11605 5.44239,24.67835 5.73223,50.6164 0.29507,75.41546 0,0 0,0 0,10e-6 -3.0342,13.88716 -7.81584,27.54487 -11.56198,41.60924 -3.7691,14.06261 -6.44407,28.76631 -5.13652,43.4416 0,0 0,10e-6 0,10e-6 1.74885,19.28575 10.69639,37.70623 24.58483,50.91195 13.89095,13.20314 32.59408,21.07073 51.54345,21.82288 -18.9207,-1.28506 -37.19536,-9.66044 -50.42429,-22.96777 -13.23144,-13.30476 -21.36293,-31.48342 -22.51129,-50.01168 -0.89871,-14.12048 2.14607,-28.26151 6.1998,-41.99939 4.07688,-13.73679 9.24936,-27.28772 12.79802,-41.5212 0,0 10e-6,-10e-6 10e-6,-10e-6 6.3317,-25.47518 6.83255,-52.38023 1.8728,-78.27658 -4.95147,-25.89806 -15.37761,-50.86749 -30.85957,-72.47759 z"
           id="path3065"
           style="fill:#37abc8;fill-rule:evenodd;stroke:none" />
        <path
           d="m 367.76406,436.91907 -5.961,8.0291 c 13.99324,10.08033 25.30809,24.06623 32.26906,39.99073 6.9663,15.92226 9.60487,33.8478 7.47452,51.23073 -2.40615,20.22325 -11.28199,39.51467 -19.57253,58.95752 -10e-6,0 -10e-6,10e-6 -10e-6,2e-5 -8.36947,19.4222 -16.31555,39.94566 -16.60427,61.47608 -0.2543,23.16469 9.02476,46.12947 25.06225,62.49575 16.04174,16.36225 38.638,25.92082 61.29942,26.12033 -22.64784,-0.80945 -44.72702,-10.96091 -59.97537,-27.38399 -15.25257,-16.41905 -23.57815,-39.00048 -22.72682,-61.14279 0.7402,-20.63289 9.09513,-40.26575 17.84681,-59.38794 0,-10e-6 10e-6,-10e-6 10e-6,-2e-5 8.83112,-19.1027 18.37025,-38.61264 21.67269,-60.17842 2.78413,-18.59291 0.50241,-37.94938 -6.61075,-55.49624 -7.1185,-17.54461 -19.01364,-33.14679 -34.17401,-44.71086 z"
           id="path3071"
           style="fill:#37abc8;fill-rule:evenodd;stroke:none" />
        <path
           d="m 421.57638,430.60922 -3.87136,9.22022 c 13.92777,5.61439 25.9173,16.47386 32.91035,29.93279 7.00941,13.4507 9.08754,29.63611 5.62762,44.55824 -3.18423,14.10613 -11.28722,27.02213 -19.98611,39.44964 -8.759,12.39885 -18.3983,24.70421 -25.12061,38.87595 -7.5631,16.02069 -10.90956,33.92144 -9.68069,51.48098 1.2311,17.55941 7.03263,34.7053 16.63116,49.32472 9.59978,14.61863 22.96464,26.6622 38.38662,34.66593 15.42233,8.00309 32.8628,11.94633 50.11528,11.38735 -17.2611,0.12355 -34.48288,-4.25887 -49.49897,-12.53939 -15.01645,-8.27986 -27.81422,-20.45004 -36.80096,-34.92083 -8.98799,-14.46999 -14.16516,-31.23953 -14.92,-48.14328 -0.75708,-16.90361 2.90665,-33.95491 10.46558,-48.9661 6.67496,-13.32077 16.41891,-25.04767 25.59354,-37.42199 0,0 0,-1e-5 1e-5,-1e-5 9.23408,-12.34477 18.03287,-25.80107 22.13891,-41.39527 4.28347,-16.62417 2.47682,-34.73462 -5.11711,-50.29895 -7.61027,-15.5561 -20.85119,-28.24918 -36.87326,-35.21 z"
           id="path3077"
           style="fill:#37abc8;fill-rule:evenodd;stroke:none" />
        <path
           d="m 299.74225,433.71991 -8.77084,-4.80338 c -21.92871,41.38901 -32.14252,88.64758 -29.37738,135.04391 0,0 0,1e-5 0,1e-5 1.44732,24.0515 6.22686,47.50215 9.55184,70.9892 3.30224,23.48564 5.195,47.40075 0.8543,70.61592 -4.60603,24.71566 -16.3584,48.18697 -33.566,66.79662 17.72267,-18.11981 30.27117,-41.3994 35.65656,-66.37628 5.04316,-23.4557 3.85823,-47.81847 1.15725,-71.5577 0,0 0,-1e-5 0,-2e-5 -2.67835,-23.73868 -6.79365,-47.24381 -7.52247,-70.74833 -1.4313,-45.31005 9.84928,-90.83065 32.01674,-129.95995 z"
           id="path3083"
           style="fill:#37abc8;fill-rule:evenodd;stroke:none" />
        <path
           d="m 541.28011,448.06283 -6.10148,-7.92288 c -17.11821,13.53942 -30.71872,31.17391 -39.84655,50.77752 -9.13866,19.59841 -13.84009,41.24497 -13.20196,62.79089 0.74133,23.24496 7.12043,45.48152 12.705,67.4211 0,10e-6 0,10e-6 0,2e-5 5.53057,21.94362 10.39513,44.32146 8.05554,66.549 -2.12127,20.44491 -10.42367,40.3253 -23.60916,56.30464 -13.18428,15.98036 -31.2302,28.03187 -51.21048,34.09335 20.13008,-5.54376 38.63742,-17.16937 52.44414,-33.0482 13.8055,-15.87986 22.85198,-35.94647 25.5873,-56.97367 2.93867,-22.84533 -1.35715,-45.90463 -6.41408,-68.08955 -5.00316,-22.18996 -10.76284,-44.24403 -10.811,-66.37409 0,0 0,-10e-6 0,-2e-5 -0.0923,-20.43522 4.92975,-40.80667 14.00035,-59.04174 9.08144,-18.22987 22.2544,-34.40723 38.40238,-46.48637 z"
           id="path3095"
           style="fill:#37abc8;fill-rule:evenodd;stroke:none" />
        <path
           d="m 466.67799,442.93998 -7.29888,-6.83566 c -24.98023,27.45762 -39.29246,63.9777 -39.74533,100.69782 -0.24735,23.66642 4.88923,46.5851 8.59967,69.32142 0,10e-6 0,10e-6 0,10e-6 3.65421,22.73268 5.95676,46.09596 0.13553,68.14319 -3.96729,15.12985 -11.94643,29.22747 -22.66952,40.79979 -10.72486,11.57064 -24.24992,20.67845 -39.26529,25.86707 15.16078,-4.74701 29.06301,-13.49367 40.27422,-24.90401 11.21298,-11.40866 19.79358,-25.53891 24.34795,-41.01458 0,-10e-6 0,-10e-6 0,-10e-6 6.58758,-22.51907 5.04446,-46.56166 1.9461,-69.59509 -3.04247,-23.03205 -7.49338,-45.85556 -6.5193,-68.43689 1.44034,-34.96388 16.15722,-69.16111 40.19485,-94.04306 z"
           id="path3101"
           style="fill:#37abc8;fill-rule:evenodd;stroke:none" />
        <path
           d="m 317.54297,435.93455 -0.19438,9.99812 c 9.51858,0.0516 19.09933,2.62279 27.62575,7.16799 8.51903,4.55863 16.03385,11.11744 21.44329,19.10042 0,1e-5 1e-5,1e-5 1e-5,2e-5 5.42845,7.97039 8.78937,17.42566 9.89816,27.13687 0,1e-5 0,1e-5 0,1e-5 1.09591,9.71253 -0.0535,19.73635 -3.59926,28.83796 -3.72644,9.6968 -10.07247,18.44593 -17.10335,26.65778 0,0 0,0 0,0 -7.05343,8.20042 -14.92563,15.93113 -22.17447,24.41362 -7.26863,8.47248 -13.89838,17.86154 -17.93635,28.53459 -4.06008,10.69385 -5.14501,22.82596 -1.41327,33.79251 2.73379,7.86031 7.76217,14.63986 13.70008,20.16973 5.92735,5.52984 12.69292,9.92834 19.5417,13.95147 6.88255,4.05111 13.87627,7.79152 20.46454,12.10576 6.50408,4.26582 12.65678,9.12611 17.48654,15.13841 0,0 0,0 0,1e-5 8.29015,10.29563 12.47368,23.94587 11.32564,37.23936 -1.14539,13.29374 -7.61709,26.14977 -17.73326,35.04015 10.31919,-8.65391 17.18126,-21.43782 18.6638,-34.94893 1.47989,-13.51136 -2.43689,-27.60243 -10.7857,-38.48584 -4.87115,-6.33558 -11.07742,-11.5021 -17.61093,-15.98837 -6.60591,-4.54297 -13.55701,-8.47411 -20.27659,-12.63997 -6.67327,-4.14546 -13.15712,-8.5623 -18.64593,-13.95229 0,-10e-6 0,-10e-6 -1e-5,-10e-6 -5.47739,-5.38914 -10.02529,-11.78104 -12.27366,-18.91112 -3.2005,-9.89125 -1.84256,-20.96891 2.05616,-30.76314 3.92321,-9.82113 10.44617,-18.52172 17.64615,-26.60373 7.22011,-8.07236 15.24876,-15.59676 22.732,-23.89175 7.50549,-8.28323 14.45211,-17.50204 18.93823,-28.20002 4.21098,-10.16114 5.78782,-21.33623 4.79554,-32.28429 0,0 0,-10e-6 0,-2e-5 -0.97939,-10.94934 -4.53145,-21.71873 -10.55724,-31.0694 0,0 0,-1e-5 0,-1e-5 -6.04482,-9.3381 -14.43398,-17.05831 -24.10891,-22.50966 -9.66754,-5.46479 -20.66095,-8.68413 -31.90428,-9.03623 z"
           id="path3107"
           style="fill:#37abc8;fill-rule:evenodd;stroke:none" />
        <path
           d="m 533.72466,443.07551 -0.19438,-9.9981 c -11.24333,0.35209 -22.23674,3.57143 -31.90428,9.03622 -9.67494,5.45134 -18.06409,13.17156 -24.10892,22.50966 0,0 0,10e-6 -1e-5,2e-5 -6.02579,9.35066 -9.57784,20.12005 -10.55723,31.06939 0,10e-6 0,10e-6 0,2e-5 -0.99228,10.94805 0.58456,22.12315 4.79554,32.28429 4.48612,10.69798 11.43274,19.91679 18.93823,28.20002 7.48324,8.29499 15.5119,15.81939 22.732,23.89175 7.19999,8.08201 13.72295,16.7826 17.64616,26.60373 3.89872,9.79423 5.25666,20.87189 2.05616,30.76314 -2.24837,7.13008 -6.79627,13.52198 -12.27367,18.91112 -5.48881,5.38999 -11.97266,9.80684 -18.64594,13.9523 -6.71958,4.16586 -13.67068,8.097 -20.27659,12.63997 0,0 -1e-5,10e-6 -2e-5,10e-6 -6.5335,4.48627 -12.73976,9.65278 -17.6109,15.98835 0,10e-6 0,10e-6 -10e-6,10e-6 -8.34881,10.88341 -12.26559,24.97448 -10.7857,38.48584 1.48253,13.51111 8.34461,26.29502 18.6638,34.94893 -10.11617,-8.89038 -16.58787,-21.74641 -17.73326,-35.04015 -1.14804,-13.29349 3.03549,-26.94373 11.32564,-37.23936 4.82976,-6.0123 10.98246,-10.8726 17.48654,-15.13842 6.58828,-4.31424 13.582,-8.05465 20.46455,-12.10576 6.84877,-4.02313 13.61434,-8.42163 19.54169,-13.95146 1e-5,-10e-6 1e-5,-10e-6 1e-5,-10e-6 5.93791,-5.52987 10.96629,-12.30942 13.70007,-20.16973 3.73175,-10.96655 2.64682,-23.09866 -1.41327,-33.79251 -4.03796,-10.67305 -10.66771,-20.06212 -17.93634,-28.53459 -7.24884,-8.48249 -15.12104,-16.2132 -22.17447,-24.41362 -7.03088,-8.21184 -13.37692,-16.96097 -17.10336,-26.65778 -3.54573,-9.10161 -4.69517,-19.12543 -3.59927,-28.83796 1.10879,-9.71122 4.46972,-19.16649 9.89818,-27.1369 0,0 0,0 0,0 5.40944,-7.98299 12.92426,-14.54179 21.44329,-19.10043 8.52643,-4.54519 18.10718,-7.11642 27.62576,-7.16799 z"
           id="path3113"
           style="fill:#37abc8;fill-rule:evenodd;stroke:none" />
      </g>
      <path
         d="m 390.20604,209.46087 c -112.17594,0 -203.12971,95.97581 -203.12971,214.37824 0,8.45904 -4.33128,32.29078 4.71278,40.79146 26.5248,24.9311 67.08061,-11.65986 100.86451,-11.83913 33.01667,-0.17518 65.63995,10.74181 98.65645,10.52367 33.05133,-0.21838 65.60646,-11.41929 98.65645,-11.8391 32.6175,-0.41432 71.64957,32.83096 97.5524,9.20818 8.32765,-7.59459 5.79268,-28.38677 5.79268,-36.84508 0,-118.40243 -90.9296,-214.37824 -203.10556,-214.37824 z"
         id="path2985"
         style="fill:#37abc8;stroke:none" />
      <g
         transform="matrix(0.89472818,0,0,0.89472818,382.76618,-86.590182)"
         id="g3019"
         style="stroke:none">
        <path
           d="m -139.21875,493.78125 c -0.0276,0.71163 -0.0625,1.43784 -0.0625,2.15625 0,29.98117 24.30008,54.28125 54.28125,54.28125 29.981172,0 54.28125,-24.30008 54.28125,-54.28125 0,-0.71841 -0.03485,-1.44462 -0.0625,-2.15625 l -108.4375,0 z"
           id="path3021"
           style="fill:#ffffff;fill-opacity:1;fill-rule:nonzero;stroke:none" />
        <path
           d="m -111.59375,493.78125 c -0.0572,0.71322 -0.0937,1.42831 -0.0937,2.15625 0,14.73651 11.950992,26.6875 26.6875,26.6875 14.736508,0 26.6875,-11.95099 26.6875,-26.6875 0,-0.72794 -0.03655,-1.44303 -0.09375,-2.15625 l -53.1875,0 z"
           id="path3023"
           style="fill:#000000;fill-opacity:1;fill-rule:nonzero;stroke:none" />
      </g>
      <g
         transform="matrix(0.89472818,0,0,0.89472818,549.05189,-83.733039)"
         id="g3025"
         style="stroke:none">
        <path
           d="m -139.21875,493.78125 c -0.0276,0.71163 -0.0625,1.43784 -0.0625,2.15625 0,29.98117 24.30008,54.28125 54.28125,54.28125 29.981172,0 54.28125,-24.30008 54.28125,-54.28125 0,-0.71841 -0.03485,-1.44462 -0.0625,-2.15625 l -108.4375,0 z"
           id="path3027"
           style="fill:#ffffff;fill-opacity:1;fill-rule:nonzero;stroke:none" />
        <path
           d="m -111.59375,493.78125 c -0.0572,0.71322 -0.0937,1.42831 -0.0937,2.15625 0,14.73651 11.950992,26.6875 26.6875,26.6875 14.736508,0 26.6875,-11.95099 26.6875,-26.6875 0,-0.72794 -0.03655,-1.44303 -0.09375,-2.15625 l -53.1875,0 z"
           id="path3029"
           style="fill:#000000;fill-opacity:1;fill-rule:nonzero;stroke:none" />
      </g>
    </g>
  </g>
</svg>
